<svg width="48" height="48" viewBox="0 0 48 48" fill="none" xmlns="http://www.w3.org/2000/svg">
<rect width="48" height="48" rx="10.2857" fill="#EBB811" fill-opacity="0.25"/>
<path d="M22.7725 12.68C23.0453 12.0052 23.7057 11.5638 24.4343 11.5638H35.9269C36.9103 11.5566 37.7107 12.3498 37.7143 13.3332C37.7143 13.5629 37.6713 13.7891 37.5887 14.0008L28.788 35.8446C28.5152 36.523 27.8548 36.9645 27.1262 36.9609H15.6336C14.6502 36.9645 13.8498 36.1748 13.8462 35.1914C13.8462 34.9617 13.8893 34.7356 13.9718 34.5238L22.7725 12.68Z" fill="url(#paint0_linear_18894_893)"/>
<path d="M17.9056 26.8034C22.1157 26.8034 25.5254 23.3901 25.5254 19.1836C25.5254 14.977 22.1157 11.5637 17.9056 11.5637C13.6955 11.5637 10.2857 14.977 10.2857 19.1836C10.2857 23.3937 13.6955 26.8034 17.9056 26.8034Z" fill="#0A33FF"/>
<path d="M25.5254 19.1835C25.5254 23.3936 22.1049 26.8069 17.8948 26.8033C17.6292 26.8033 17.3636 26.789 17.098 26.7603L22.5787 13.1644C24.4415 14.6073 25.529 16.829 25.5254 19.1835Z" fill="url(#paint1_linear_18894_893)"/>
<defs>
<linearGradient id="paint0_linear_18894_893" x1="30.5647" y1="11.5853" x2="20.9672" y2="37.0183" gradientUnits="userSpaceOnUse">
<stop stop-color="#FFD60A"/>
<stop offset="1" stop-color="#F5BE09"/>
</linearGradient>
<linearGradient id="paint1_linear_18894_893" x1="25.1234" y1="14.2161" x2="19.6786" y2="27.7796" gradientUnits="userSpaceOnUse">
<stop stop-color="#051A80"/>
<stop offset="1" stop-color="#0A33FF"/>
</linearGradient>
</defs>
</svg>
